<svg xmlns="http://www.w3.org/2000/svg" viewBox="0 0 800 600">
  <rect width="800" height="600" fill="#f3eee7"/>
  <path d="M0 475 C150 425 260 508 390 455 C520 400 630 432 800 382 L800 600 L0 600 Z" fill="#c8d8c0" opacity="0.82"/>
  <path d="M80 420 C190 360 260 398 346 352 C460 292 570 322 720 270" fill="none" stroke="#9a8e82" stroke-width="14" stroke-linecap="round" opacity="0.18"/>
  <path d="M120 455 C220 410 300 440 405 392 C520 340 610 360 735 316" fill="none" stroke="white" stroke-width="32" stroke-linecap="round" opacity="0.72"/>
  <g opacity="0.88">
    <rect x="112" y="186" width="132" height="92" rx="10" fill="#e0a56b"/>
    <rect x="258" y="136" width="168" height="142" rx="12" fill="#ffffff" opacity="0.78"/>
    <rect x="442" y="204" width="112" height="74" rx="10" fill="#9a8e82" opacity="0.32"/>
  </g>
  <g fill="#9a8e82" opacity="0.55">
    <circle cx="164" cy="382" r="9"/><rect x="161" y="392" width="6" height="30" rx="3"/>
    <circle cx="355" cy="338" r="8"/><rect x="352" y="348" width="6" height="28" rx="3"/>
    <circle cx="570" cy="388" r="9"/><rect x="567" y="398" width="6" height="30" rx="3"/>
  </g>
  <g opacity="0.65">
    <circle cx="622" cy="160" r="58" fill="#c8d8c0"/>
    <circle cx="665" cy="198" r="42" fill="#e0a56b"/>
    <circle cx="604" cy="222" r="36" fill="#fff"/>
  </g>
  <text x="58" y="74" fill="#9a8e82" font-family="Inter, Arial, sans-serif" font-size="30" font-weight="700">Prompt Case 02</text>
  <text x="58" y="112" fill="#9a8e82" opacity="0.65" font-family="Inter, Arial, sans-serif" font-size="20">儿童活动空间场景图</text>
  <rect x="58" y="520" width="180" height="18" rx="9" fill="#9a8e82" opacity="0.16"/>
  <rect x="258" y="520" width="118" height="18" rx="9" fill="#9a8e82" opacity="0.11"/>
  <rect x="396" y="520" width="150" height="18" rx="9" fill="#9a8e82" opacity="0.13"/>
</svg>